<?xml version="1.0" encoding="UTF-8" standalone="no"?>
<!-- Created with Inkscape (http://www.inkscape.org/) -->

<svg
   width="808.73932mm"
   height="236.07837mm"
   viewBox="0 0 808.73932 236.07837"
   version="1.1"
   id="svg5"
   sodipodi:docname="logo-design.svg"
   inkscape:version="1.2.2 (b0a8486541, 2022-12-01)"
   inkscape:export-filename="lighttest.svg"
   inkscape:export-xdpi="96"
   inkscape:export-ydpi="96"
   xmlns:inkscape="http://www.inkscape.org/namespaces/inkscape"
   xmlns:sodipodi="http://sodipodi.sourceforge.net/DTD/sodipodi-0.dtd"
   xmlns:xlink="http://www.w3.org/1999/xlink"
   xmlns="http://www.w3.org/2000/svg"
   xmlns:svg="http://www.w3.org/2000/svg">
  <sodipodi:namedview
     id="namedview7"
     pagecolor="#ffffff"
     bordercolor="#ffffff"
     borderopacity="1"
     inkscape:showpageshadow="false"
     inkscape:pageopacity="0"
     inkscape:pagecheckerboard="0"
     inkscape:deskcolor="#ffffff"
     inkscape:document-units="mm"
     showgrid="false"
     showborder="false"
     inkscape:zoom="0.2973261"
     inkscape:cx="2981.5748"
     inkscape:cy="4947.4298"
     inkscape:window-width="1920"
     inkscape:window-height="1051"
     inkscape:window-x="0"
     inkscape:window-y="121"
     inkscape:window-maximized="1"
     inkscape:current-layer="layer1"
     borderlayer="true" />
  <defs
     id="defs2">
    <linearGradient
       inkscape:collect="always"
       id="linearGradient51529">
      <stop
         style="stop-color:#1aa782;stop-opacity:1;"
         offset="0"
         id="stop51523" />
      <stop
         style="stop-color:#1ccd92;stop-opacity:1;"
         offset="0.35862747"
         id="stop51525" />
      <stop
         style="stop-color:#20a8c3;stop-opacity:1;"
         offset="1"
         id="stop51527" />
    </linearGradient>
    <linearGradient
       inkscape:collect="always"
       xlink:href="#linearGradient51529"
       id="linearGradient609"
       gradientUnits="userSpaceOnUse"
       gradientTransform="translate(-342.23615,-69.408681)"
       x1="776.38519"
       y1="1510.1194"
       x2="1612.0417"
       y2="1510.1194"
       spreadMethod="pad" />
    <linearGradient
       inkscape:collect="always"
       xlink:href="#linearGradient51529"
       id="linearGradient854"
       gradientUnits="userSpaceOnUse"
       gradientTransform="translate(-342.23615,-69.408681)"
       x1="776.38519"
       y1="1510.1194"
       x2="1612.0417"
       y2="1510.1194"
       spreadMethod="pad" />
    <linearGradient
       inkscape:collect="always"
       xlink:href="#linearGradient51529"
       id="linearGradient856"
       gradientUnits="userSpaceOnUse"
       gradientTransform="translate(-342.23615,-69.408681)"
       x1="776.38519"
       y1="1510.1194"
       x2="1612.0417"
       y2="1510.1194"
       spreadMethod="pad" />
    <linearGradient
       inkscape:collect="always"
       xlink:href="#linearGradient51529"
       id="linearGradient858"
       gradientUnits="userSpaceOnUse"
       gradientTransform="translate(-342.23615,-69.408681)"
       x1="776.38519"
       y1="1510.1194"
       x2="1612.0417"
       y2="1510.1194"
       spreadMethod="pad" />
    <linearGradient
       inkscape:collect="always"
       xlink:href="#linearGradient51529"
       id="linearGradient860"
       gradientUnits="userSpaceOnUse"
       gradientTransform="translate(-342.23615,-69.408681)"
       x1="776.38519"
       y1="1510.1194"
       x2="1612.0417"
       y2="1510.1194"
       spreadMethod="pad" />
    <linearGradient
       inkscape:collect="always"
       xlink:href="#linearGradient51529"
       id="linearGradient862"
       gradientUnits="userSpaceOnUse"
       gradientTransform="translate(-342.23615,-69.408681)"
       x1="776.38519"
       y1="1510.1194"
       x2="1612.0417"
       y2="1510.1194"
       spreadMethod="pad" />
    <linearGradient
       inkscape:collect="always"
       xlink:href="#linearGradient51529"
       id="linearGradient864"
       gradientUnits="userSpaceOnUse"
       gradientTransform="translate(-342.23615,-69.408681)"
       x1="776.38519"
       y1="1510.1194"
       x2="1612.0417"
       y2="1510.1194"
       spreadMethod="pad" />
    <linearGradient
       inkscape:collect="always"
       xlink:href="#linearGradient51529"
       id="linearGradient866"
       gradientUnits="userSpaceOnUse"
       gradientTransform="translate(-342.23615,-69.408681)"
       x1="776.38519"
       y1="1510.1194"
       x2="1612.0417"
       y2="1510.1194"
       spreadMethod="pad" />
  </defs>
  <g
     inkscape:label="Layer 1"
     inkscape:groupmode="layer"
     id="layer1"
     transform="translate(-442.79219,-1322.6699)">
    <g
       aria-label="delibay"
       id="text236-8-0-6-3-2-4-1-7-4-7-7-1-2"
       style="font-size:246.944px;font-family:Cantarell;-inkscape-font-specification:'Cantarell, @wght=700';font-variation-settings:'wght' 700;text-align:center;text-anchor:middle;fill:url(#linearGradient609);stroke-width:0"
       inkscape:label="logo-as-path"
       inkscape:export-filename="./logo-50.png"
       inkscape:export-xdpi="5.37957"
       inkscape:export-ydpi="5.37957">
      <path
         d="m 494.89739,1507.6309 c 18.76774,0 33.58438,-9.1369 42.72131,-24.6944 l -7.16137,-16.2983 c -5.43277,9.137 -14.5697,14.5697 -25.92912,14.5697 -18.27386,0 -29.88023,-14.3227 -29.88023,-37.0416 0,-21.2372 10.61859,-34.8191 28.64551,-34.8191 11.85331,0 21.48412,5.6797 27.16384,15.3106 l 8.88998,-19.0147 c -8.14915,-14.8167 -22.22496,-22.9658 -40.49882,-22.9658 -33.58438,0 -56.05628,25.4352 -56.05628,63.4646 0,37.0416 21.23718,61.489 52.10518,61.489 z m 43.46214,-2.4694 h 20.24941 v -182.4916 h -30.62105 v 160.7605 z"
         id="path679"
         style="fill:url(#linearGradient854)" />
      <path
         d="m 652.69418,1507.6309 c 14.32275,0 29.38634,-2.7163 42.47437,-8.1491 l -6.91443,-21.978 c -9.63082,3.9511 -20.24941,6.1736 -30.37412,6.1736 -25.92912,0 -39.75798,-14.3228 -39.75798,-42.2275 0,-22.4719 9.38387,-34.3252 26.17606,-34.3252 15.55748,0 24.44746,9.8778 24.44746,27.6578 h -54.82157 v 19.2616 h 83.22013 c 0.74083,-4.9389 1.23472,-12.3472 1.23472,-18.0269 0,-32.5966 -20.00246,-53.3399 -51.85824,-53.3399 -35.80688,0 -59.76045,25.6822 -59.76045,62.9707 0,38.5233 24.94135,61.9829 65.93405,61.9829 z"
         id="path681"
         style="fill:url(#linearGradient856)" />
      <path
         d="m 760.36145,1507.1371 c 7.65526,0 16.54525,-1.7287 22.96579,-4.445 l -6.42054,-21.2372 c -2.71639,0.9878 -5.43277,1.4816 -7.65527,1.4816 -7.40832,0 -11.35942,-4.6919 -11.35942,-13.088 v -147.1786 h -31.11495 v 151.1297 c 0,20.7433 12.59415,33.3375 33.58439,33.3375 z"
         id="path683"
         style="fill:url(#linearGradient858)" />
      <path
         d="m 802.0946,1505.1615 h 31.36189 V 1385.1467 H 802.0946 Z m 15.80442,-141.9928 c 11.85331,0 19.50857,-7.6553 19.50857,-19.5086 0,-11.8533 -7.65526,-19.5086 -19.50857,-19.5086 -11.60637,0 -19.26164,7.6553 -19.26164,19.5086 0,11.8533 7.65527,19.5086 19.26164,19.5086 z"
         id="path685"
         style="fill:url(#linearGradient860)" />
      <path
         d="m 928.52977,1507.6309 c 33.83133,0 56.55018,-25.4352 56.55018,-63.7115 0,-36.7947 -21.48413,-61.2421 -53.09296,-61.2421 -21.97802,0 -38.02938,11.8533 -45.93159,31.8558 l 9.38387,12.1002 c 4.69194,-11.6064 14.5697,-17.2861 26.42301,-17.2861 19.26163,0 31.11495,14.3228 31.11495,36.7947 0,21.7311 -10.6186,35.066 -28.64551,35.066 -12.59414,0 -22.71885,-6.6675 -28.15161,-17.7799 l -10.6186,16.0513 c 7.40832,18.5208 22.22496,28.1516 42.96826,28.1516 z m -59.26656,-2.4694 h 20.00246 l 10.6186,-21.7311 v -160.7605 h -30.62106 z"
         id="path687"
         style="fill:url(#linearGradient862)" />
      <path
         d="m 1088.549,1505.1615 h 22.4719 v -72.1076 c 0,-32.3497 -18.5208,-50.3766 -53.8338,-50.3766 -17.286,0 -35.5599,4.445 -49.6357,11.6063 l 7.4083,21.9781 c 12.5942,-4.9389 24.4475,-7.4084 35.5599,-7.4084 19.2617,0 29.6333,7.4084 29.6333,21.7311 v 51.6113 z m -41.9805,2.4694 c 26.4231,0 45.6847,-15.0635 51.3644,-40.9927 l -10.1247,-4.6919 c -4.1981,12.8411 -16.2983,20.9902 -30.868,20.9902 -12.1003,0 -20.2494,-6.1736 -20.2494,-15.0635 0,-11.6064 14.0758,-16.2983 48.648,-16.2983 v -17.5331 c -55.5624,0 -80.2568,11.6064 -80.2568,38.0294 0,21.4841 16.2983,35.5599 41.4865,35.5599 z"
         id="path689"
         style="fill:url(#linearGradient864)" />
      <path
         d="m 1152.2601,1558.7483 h 33.8314 l 19.2616,-53.5868 46.1785,-120.0148 h -31.3619 l -33.8313,103.2226 7.6553,0.247 -31.8558,-103.4696 h -34.8191 l 46.6724,120.0148 z"
         id="path691"
         style="fill:url(#linearGradient866)" />
    </g>
  </g>
</svg>
